<?xml version="1.0" encoding="UTF-8"?>
<svg width="16px" height="16px" viewBox="0 0 16 16" version="1.1" xmlns="http://www.w3.org/2000/svg" xmlns:xlink="http://www.w3.org/1999/xlink">
    <!-- Generator: Sketch 63.1 (92452) - https://sketch.com -->
    <title>btn/icon16/icon_cloud_normal</title>
    <desc>Created with Sketch.</desc>
    <g id="btn/icon16/icon_cloud_normal" stroke="none" stroke-width="1" fill="none" fill-rule="evenodd">
        <g id="btn/icon_cloud_normal" transform="translate(0.000000, -0.500000)" fill="currentColor">
            <path d="M7,1.5 C9.76142375,1.5 12,3.73857625 12,6.5 C12,6.66898981 11.9916165,6.83602154 11.9752426,7.00070198 L12,7 C14.209139,7 16,8.790861 16,11 C16,13.209139 14.209139,15 12,15 L7,15 C6.84002195,15 6.6822374,14.9906085 6.52716763,14.9723466 C6.35431123,14.990673 6.17824483,15 6,15 L5,15 C2.23857625,15 3.38176876e-16,12.7614237 0,10 C-1.43599531e-16,8.82742085 0.40363621,7.74911598 1.07954475,6.89644928 C2.17545199,5.87695824 3.84973067,5.64166909 5.21410162,6.42938902 C5.45324793,6.56746021 5.75904313,6.48552263 5.89711432,6.24637632 C6.0351855,6.00723001 5.95324793,5.7014348 5.71410162,5.56336362 C4.60139938,4.92094468 3.32837964,4.80773572 2.18649517,5.14564219 C2.77524236,3.04294071 4.70743462,1.5 7,1.5 Z M7,10 C6.44771525,10 6,10.4477153 6,11 C6,11.5522847 6.44771525,12 7,12 C7.55228475,12 8,11.5522847 8,11 C8,10.4477153 7.55228475,10 7,10 Z M4,10 C3.44771525,10 3,10.4477153 3,11 C3,11.5522847 3.44771525,12 4,12 C4.55228475,12 5,11.5522847 5,11 C5,10.4477153 4.55228475,10 4,10 Z M10,10 C9.44771525,10 9,10.4477153 9,11 C9,11.5522847 9.44771525,12 10,12 C10.5522847,12 11,11.5522847 11,11 C11,10.4477153 10.5522847,10 10,10 Z" id="合併形狀"></path>
        </g>
    </g>
</svg>