<?xml version="1.0" encoding="UTF-8"?>
<svg width="16px" height="16px" viewBox="0 0 16 16" version="1.1" xmlns="http://www.w3.org/2000/svg" xmlns:xlink="http://www.w3.org/1999/xlink">
    <!-- Generator: Sketch 61.2 (89653) - https://sketch.com -->
    <title>icon16/menu/icon_faq_drakgray</title>
    <desc>Created with Sketch.</desc>
    <g id="icon16/menu/icon_faq_drakgray" stroke="none" stroke-width="1" fill="none" fill-rule="evenodd">
        <path d="M10.65,0.85 L11.85,0.85 C12.4022847,0.85 12.85,1.29771525 12.85,1.85 L12.85,8.22688802 C12.85,8.77917277 12.4022847,9.22688802 11.85,9.22688802 L4.85,9.22688802 L0.85,12.85 L0.85,9.22688802 L0.85,1.85 C0.85,1.29771525 1.29771525,0.85 1.85,0.85 L8,0.85" id="路徑" stroke="currentColor" stroke-width="1.5" stroke-linecap="round" stroke-linejoin="round"></path>
        <path d="M13.1025,6 L14.25,6 C14.7470563,6 15.15,6.44771525 15.15,7 L15.15,13.5 L15.15,15.1972656 L12.3316992,13.5 L7.05,13.5 C6.55294373,13.5 6.15,13.0522847 6.15,12.5 L6.15,11.4749756" id="路徑" stroke="currentColor" stroke-width="1.5" stroke-linecap="round" stroke-linejoin="round"></path>
        <circle id="橢圓形" fill="currentColor" cx="3.75" cy="5" r="1"></circle>
        <circle id="橢圓形" fill="currentColor" cx="6.875" cy="5" r="1"></circle>
        <circle id="橢圓形" fill="currentColor" cx="10" cy="5" r="1"></circle>
    </g>
</svg>